<?xml version="1.0" encoding="utf-8"?>
<!DOCTYPE svg PUBLIC "-//W3C//DTD SVG 20010904//EN" "http://www.w3.org/TR/2001/REC-SVG-20010904/DTD/svg10.dtd">
<svg version="1.0" xmlns="http://www.w3.org/2000/svg" width="200pt" height="200pt" viewBox="0 0 200 200" style="background-color:#f8f4f4" preserveAspectRatio="xMidYMid meet">
<g fill="#292F38FF" stroke="#292F38FF">
<path d="M 64.557 44.223 C 63.258 46.076 63.000 50.226 63.000 69.223 C 63.000 98.007 61.689 96.000 80.500 96.000 L 94.000 96.000 94.000 101.000 C 94.000 105.667 93.833 106.000 91.500 106.000 C 90.125 106.000 89.000 106.450 89.000 107.000 C 89.000 107.613 93.833 108.000 101.500 108.000 C 109.167 108.000 114.000 107.613 114.000 107.000 C 114.000 106.450 112.875 106.000 111.500 106.000 C 109.167 106.000 109.000 105.667 109.000 101.000 L 109.000 96.000 122.845 96.000 C 134.988 96.000 136.893 95.775 138.345 94.171 C 139.787 92.578 140.000 89.299 140.000 68.743 C 140.000 48.622 139.768 44.911 138.429 43.571 C 137.059 42.202 132.308 42.000 101.485 42.000 L 66.113 42.000 64.557 44.223 M 136.897 45.375 C 137.697 46.340 137.958 53.593 137.769 69.625 L 137.500 92.500 101.750 92.763 L 66.000 93.025 66.000 69.096 C 66.000 50.888 66.299 45.046 67.250 44.662 C 67.938 44.385 83.632 44.122 102.128 44.079 C 129.518 44.015 135.967 44.255 136.897 45.375 M 107.000 101.000 L 107.000 106.000 102.000 106.000 L 97.000 106.000 97.000 101.000 L 97.000 96.000 102.000 96.000 L 107.000 96.000 107.000 101.000 "/></g>
<g fill="#292F38FF" stroke="#292F38FF">
<path d="M 122.538 123.939 C 122.219 124.455 122.626 125.251 123.443 125.708 C 124.586 126.348 124.994 129.067 125.214 137.520 L 125.500 148.500 132.855 148.796 C 140.842 149.117 144.295 147.796 145.515 143.953 C 146.206 141.774 144.355 136.000 142.966 136.000 C 142.530 136.000 142.653 134.729 143.240 133.176 C 144.701 129.305 143.557 125.575 140.477 124.171 C 137.417 122.777 123.368 122.595 122.538 123.939 M 141.429 138.571 C 145.593 142.736 141.470 147.000 133.277 147.000 L 128.000 147.000 128.000 142.000 L 128.000 137.000 133.929 137.000 C 137.985 137.000 140.353 137.496 141.429 138.571 M 139.830 126.874 C 140.586 127.353 141.018 128.966 140.830 130.609 C 140.510 133.416 140.319 133.509 134.250 133.798 L 128.000 134.095 128.000 130.048 L 128.000 126.000 133.250 126.015 C 136.138 126.024 139.099 126.410 139.830 126.874 "/></g>
<g fill="#292F38FF" stroke="#292F38FF">
<path d="M 189.889 127.750 C 189.828 128.163 189.861 129.513 189.961 130.750 C 190.125 132.780 189.699 133.000 185.595 133.000 C 181.799 133.000 180.764 133.431 179.342 135.601 C 177.962 137.707 177.846 138.753 178.730 141.097 C 179.331 142.689 179.455 144.219 179.005 144.497 C 178.555 144.775 177.867 147.331 177.476 150.178 C 176.608 156.487 178.058 158.000 184.969 158.000 C 190.427 158.000 194.000 155.818 194.000 152.483 C 194.000 150.556 193.258 149.877 190.250 149.053 C 188.188 148.488 185.470 147.907 184.210 147.763 C 180.589 147.347 181.142 145.534 185.000 145.172 C 190.139 144.690 192.307 142.323 191.706 137.848 C 191.436 135.833 191.674 133.726 192.234 133.166 C 193.428 131.972 192.417 127.000 190.981 127.000 C 190.441 127.000 189.950 127.338 189.889 127.750 M 190.874 151.592 C 191.902 152.478 189.781 155.017 187.543 155.579 C 183.246 156.657 180.000 155.309 180.000 152.447 C 180.000 149.994 180.131 149.948 185.250 150.601 C 188.138 150.969 190.668 151.416 190.874 151.592 M 187.800 136.200 C 191.002 139.402 187.623 144.061 183.470 142.168 C 179.618 140.413 180.773 135.000 185.000 135.000 C 185.880 135.000 187.140 135.540 187.800 136.200 "/></g>
<g fill="#292F38FF" stroke="#292F38FF">
<path d="M 161.080 134.750 C 159.903 135.713 158.672 138.167 158.346 140.204 C 157.834 143.406 158.166 144.320 160.800 146.954 C 164.720 150.874 168.242 150.912 172.077 147.077 C 175.807 143.347 175.986 138.895 172.545 135.455 C 169.590 132.499 164.237 132.170 161.080 134.750 M 169.777 136.557 C 173.989 139.507 171.822 147.000 166.757 147.000 C 161.598 147.000 159.250 140.750 163.000 137.000 C 165.407 134.593 166.840 134.499 169.777 136.557 "/></g>
<g fill="#292F38FF" stroke="#292F38FF">
<path d="M 82.736 134.250 C 81.831 134.938 80.623 136.759 80.052 138.298 C 78.757 141.786 80.794 147.284 84.021 149.011 C 88.180 151.237 97.092 147.692 94.315 144.915 C 93.649 144.249 92.889 144.429 92.035 145.458 C 89.582 148.414 83.000 146.842 83.000 143.300 C 83.000 142.378 84.744 142.000 89.000 142.000 C 94.577 142.000 95.000 141.839 95.000 139.723 C 95.000 135.657 92.286 133.000 88.134 133.000 C 86.071 133.000 83.642 133.563 82.736 134.250 M 90.800 136.200 C 92.914 138.314 92.107 139.000 87.500 139.000 C 82.828 139.000 81.733 137.837 84.750 136.080 C 87.110 134.705 89.350 134.750 90.800 136.200 "/></g>
<g fill="#292F38FF" stroke="#292F38FF">
<path d="M 63.073 135.635 C 58.454 141.507 62.497 150.000 69.912 150.000 C 72.677 150.000 77.372 145.972 76.095 144.695 C 75.365 143.965 74.486 144.155 73.195 145.324 C 70.667 147.612 66.324 147.474 65.035 145.066 C 64.466 144.002 64.000 142.898 64.000 142.613 C 64.000 142.329 66.813 141.961 70.250 141.798 C 76.220 141.513 76.488 141.390 76.227 139.053 C 75.525 132.760 67.064 130.561 63.073 135.635 M 71.418 135.607 C 72.288 135.941 73.000 136.841 73.000 137.607 C 73.000 138.607 71.659 138.991 68.250 138.967 L 63.500 138.933 65.861 136.967 C 68.421 134.834 69.021 134.687 71.418 135.607 "/></g>
<g fill="#292F38FF" stroke="#292F38FF">
<path d="M 38.000 134.094 C 38.000 134.695 38.900 135.423 40.000 135.710 C 41.759 136.170 42.000 137.074 42.000 143.200 C 42.000 148.327 42.330 150.058 43.250 149.754 C 44.004 149.506 44.619 147.087 44.800 143.661 C 45.051 138.921 45.505 137.715 47.542 136.380 C 51.536 133.764 52.865 135.131 53.201 142.200 L 53.500 148.500 56.750 148.813 C 58.576 148.989 60.000 148.661 60.000 148.063 C 60.000 147.479 59.100 147.000 58.000 147.000 C 56.230 147.000 56.000 146.333 56.000 141.200 C 56.000 138.010 55.460 134.860 54.800 134.200 C 53.340 132.740 48.554 132.633 45.995 134.003 C 44.743 134.673 43.916 134.673 43.502 134.003 C 42.663 132.645 38.000 132.722 38.000 134.094 "/></g>
<g fill="#292F38FF" stroke="#292F38FF">
<path d="M 17.000 134.434 C 17.000 135.295 17.653 136.000 18.450 136.000 C 19.513 136.000 19.980 137.527 20.200 141.717 C 20.465 146.775 20.818 147.610 23.262 148.967 C 25.770 150.359 26.297 150.344 29.012 148.797 C 30.655 147.860 32.000 147.522 32.000 148.047 C 32.000 148.571 33.350 149.000 35.000 149.000 C 36.650 149.000 38.000 148.550 38.000 148.000 C 38.000 147.450 37.346 147.000 36.546 147.000 C 35.448 147.000 35.019 145.364 34.796 140.330 C 34.608 136.107 34.041 133.508 33.250 133.246 C 32.353 132.950 32.000 134.365 32.000 138.262 C 32.000 144.399 29.841 147.398 25.832 146.830 C 23.724 146.532 23.452 145.874 23.000 140.000 C 22.523 133.795 22.375 133.486 19.750 133.184 C 17.786 132.958 17.000 133.315 17.000 134.434 "/></g>
<g fill="#292F38FF" stroke="#292F38FF">
<path d="M 6.458 124.067 C 6.095 124.655 6.743 125.381 7.899 125.684 C 9.896 126.206 10.000 126.869 10.000 139.117 C 10.000 150.667 9.793 152.207 8.000 154.000 C 4.246 157.754 5.984 159.452 10.139 156.091 C 12.386 154.274 12.516 153.501 12.826 140.091 C 13.088 128.717 13.426 126.000 14.576 126.000 C 15.359 126.000 16.000 125.325 16.000 124.500 C 16.000 123.392 14.840 123.000 11.559 123.000 C 9.116 123.000 6.821 123.480 6.458 124.067 "/></g>
<g fill="#292F38FF" stroke="#292F38FF">
<path d="M 146.494 118.010 C 146.088 118.667 146.662 119.360 147.873 119.677 C 149.831 120.189 149.962 121.010 150.223 134.360 L 150.500 148.500 154.000 148.437 C 156.965 148.384 157.160 148.253 155.276 147.577 C 153.133 146.809 153.042 146.247 152.776 132.140 L 152.500 117.500 149.844 117.193 C 148.384 117.024 146.876 117.391 146.494 118.010 "/></g>
<g fill="#292F38FF" stroke="#292F38FF">
<path d="M 96.458 134.067 C 96.096 134.654 96.725 135.377 97.856 135.673 C 99.628 136.136 99.954 137.122 100.207 142.776 C 100.392 146.916 100.962 149.493 101.750 149.754 C 102.656 150.053 103.000 148.535 103.000 144.238 C 103.000 139.765 103.449 137.904 104.829 136.655 C 107.291 134.427 109.000 134.568 109.000 137.000 C 109.000 138.149 109.667 139.000 110.566 139.000 C 111.685 139.000 112.042 138.214 111.816 136.250 C 111.566 134.073 110.914 133.433 108.690 133.178 C 107.144 133.001 105.158 133.451 104.277 134.178 C 103.015 135.219 102.585 135.234 102.254 134.250 C 101.741 132.725 97.373 132.587 96.458 134.067 "/></g>
<g fill="#292F38FF" stroke="#292F38FF">
<path d="M 113.000 59.930 C 113.000 60.441 116.126 62.548 119.947 64.611 C 123.767 66.675 126.661 68.740 126.376 69.201 C 126.091 69.661 123.753 71.119 121.179 72.439 C 115.198 75.508 112.331 77.665 113.147 78.480 C 113.929 79.262 131.000 70.168 131.000 68.969 C 131.000 68.074 115.427 59.000 113.892 59.000 C 113.401 59.000 113.000 59.418 113.000 59.930 "/></g>
<g fill="#292F38FF" stroke="#292F38FF">
<path d="M 80.250 63.618 C 75.713 66.122 72.000 68.469 72.001 68.835 C 72.002 69.201 75.707 71.525 80.234 74.000 C 90.524 79.625 90.003 79.420 89.983 77.833 C 89.974 77.100 86.762 74.771 82.846 72.657 L 75.727 68.814 82.863 64.873 C 86.789 62.705 90.000 60.497 90.000 59.966 C 90.000 58.421 88.970 58.806 80.250 63.618 "/></g>
<g fill="#292F38FF" stroke="#292F38FF">
<path d="M 105.088 57.250 C 104.613 58.488 102.155 64.643 99.624 70.928 C 95.352 81.539 94.609 84.791 97.005 82.395 C 98.016 81.384 108.000 57.251 108.000 55.818 C 108.000 54.082 105.908 55.111 105.088 57.250 "/></g>
</svg>
