<?xml version="1.0" encoding="utf-8"?>
<!DOCTYPE svg PUBLIC "-//W3C//DTD SVG 20010904//EN" "http://www.w3.org/TR/2001/REC-SVG-20010904/DTD/svg10.dtd">
<svg version="1.0" xmlns="http://www.w3.org/2000/svg" width="200pt" height="200pt" viewBox="0 0 200 200" style="background-color:#D1E1E8" preserveAspectRatio="xMidYMid meet">
<g fill="#1C9954FF" stroke="#1C9954FF">
<path d="M 90.937 31.302 C 79.002 34.686 69.214 43.504 65.012 54.656 C 63.183 59.511 62.876 62.023 63.200 69.500 C 63.542 77.382 64.006 79.276 66.936 84.752 C 70.987 92.324 77.214 98.272 84.825 101.840 C 89.722 104.135 91.803 104.500 100.000 104.500 C 108.197 104.500 110.278 104.135 115.175 101.840 C 122.786 98.272 129.013 92.324 133.064 84.752 C 135.994 79.276 136.458 77.382 136.800 69.500 C 137.273 58.581 135.063 51.617 128.600 43.656 C 120.216 33.330 103.324 27.789 90.937 31.302 M 113.185 38.227 C 123.691 43.037 130.078 51.298 131.805 62.310 C 136.572 92.709 101.063 112.046 78.208 91.497 C 66.372 80.855 64.257 62.820 73.264 49.343 C 81.756 36.636 99.138 31.796 113.185 38.227 "/></g>
<g fill="#FFFFFFFF" stroke="#FFFFFFFF">
<path d="M 92.000 36.876 C 86.777 38.594 80.979 42.119 77.416 45.742 C 62.841 60.558 66.701 85.316 85.181 95.554 C 90.022 98.235 91.353 98.500 100.000 98.500 C 108.647 98.500 109.978 98.235 114.819 95.554 C 137.601 82.934 136.857 51.187 113.500 39.244 C 108.158 36.513 96.879 35.270 92.000 36.876 M 121.393 50.582 C 122.572 53.653 122.064 79.536 120.800 80.800 C 119.105 82.495 80.895 82.495 79.200 80.800 C 77.936 79.536 77.428 53.653 78.607 50.582 C 79.134 49.210 81.968 49.000 100.000 49.000 C 118.032 49.000 120.866 49.210 121.393 50.582 M 110.837 86.380 C 111.035 87.414 110.590 88.645 109.848 89.115 C 108.310 90.090 92.975 90.311 90.582 89.393 C 88.969 88.774 88.435 85.898 89.699 84.634 C 90.084 84.249 94.916 84.062 100.438 84.217 C 109.344 84.468 110.517 84.712 110.837 86.380 "/></g>
<g fill="#1D2936FF" stroke="#1D2936FF">
<path d="M 79.449 50.273 C 79.171 50.996 79.069 58.318 79.222 66.544 L 79.500 81.500 100.000 81.500 L 120.500 81.500 120.500 65.500 L 120.500 49.500 100.227 49.229 C 84.204 49.015 79.847 49.234 79.449 50.273 M 116.000 65.500 L 116.000 76.000 100.000 76.000 L 84.000 76.000 84.000 65.500 L 84.000 55.000 100.000 55.000 L 116.000 55.000 116.000 65.500 "/></g>
<g fill="#FFFFFFFF" stroke="#FFFFFFFF">
<path d="M 84.000 65.500 L 84.000 76.000 100.000 76.000 L 116.000 76.000 116.000 65.500 L 116.000 55.000 100.000 55.000 L 84.000 55.000 84.000 65.500 M 109.835 60.382 C 110.319 62.893 100.336 73.000 97.373 73.000 C 95.023 73.000 90.000 67.817 90.000 65.392 C 90.000 62.917 92.970 62.623 95.354 64.862 L 97.605 66.978 102.038 62.461 C 106.596 57.817 109.207 57.121 109.835 60.382 "/></g>
<g fill="#1D2936FF" stroke="#1D2936FF">
<path d="M 105.000 146.694 C 101.871 147.812 101.000 150.392 101.000 158.536 C 101.000 169.079 102.270 170.500 111.693 170.500 C 120.488 170.500 122.000 168.716 122.000 158.344 C 122.000 151.783 121.711 150.620 119.545 148.455 C 117.529 146.438 116.146 146.014 111.795 146.079 C 108.883 146.122 105.825 146.399 105.000 146.694 M 114.000 158.500 C 114.000 163.700 113.864 164.000 111.500 164.000 C 109.136 164.000 109.000 163.700 109.000 158.500 C 109.000 153.300 109.136 153.000 111.500 153.000 C 113.864 153.000 114.000 153.300 114.000 158.500 "/></g>
<g fill="#1D2936FF" stroke="#1D2936FF">
<path d="M 55.219 158.250 L 55.500 170.500 63.635 170.467 C 68.922 170.446 72.336 169.966 73.385 169.095 C 75.391 167.430 75.661 158.191 73.726 157.448 C 72.902 157.132 72.581 155.594 72.819 153.102 C 73.335 147.689 70.701 146.000 61.747 146.000 L 54.938 146.000 55.219 158.250 M 67.000 162.500 C 67.000 163.333 66.111 164.000 65.000 164.000 C 63.889 164.000 63.000 163.333 63.000 162.500 C 63.000 161.667 63.889 161.000 65.000 161.000 C 66.111 161.000 67.000 161.667 67.000 162.500 "/></g>
<g fill="#1D2936FF" stroke="#1D2936FF">
<path d="M 130.000 146.687 C 125.822 148.285 125.000 150.153 125.000 158.044 C 125.000 167.965 126.283 169.724 134.171 170.616 C 137.289 170.968 141.023 170.960 142.467 170.598 C 144.994 169.963 145.083 169.702 144.797 163.719 L 144.500 157.500 141.000 157.500 C 137.782 157.500 137.475 157.762 137.187 160.750 C 136.951 163.190 136.391 164.000 134.937 164.000 C 133.256 164.000 133.000 163.273 133.000 158.500 L 133.000 153.000 138.063 153.000 L 143.127 153.000 142.813 149.750 C 142.504 146.543 142.428 146.497 137.000 146.307 C 133.975 146.200 130.825 146.372 130.000 146.687 "/></g>
<g fill="#1D2936FF" stroke="#1D2936FF">
<path d="M 78.667 146.667 C 77.442 147.892 77.917 168.517 79.200 169.800 C 80.570 171.170 94.750 171.445 96.805 170.142 C 97.699 169.575 98.013 167.456 97.805 163.407 L 97.500 157.500 94.000 157.500 C 90.782 157.500 90.475 157.762 90.187 160.750 C 89.993 162.763 89.327 164.000 88.437 164.000 C 87.317 164.000 87.000 162.364 87.000 156.582 C 87.000 152.502 86.727 148.452 86.393 147.582 C 85.783 145.992 80.023 145.310 78.667 146.667 "/></g>
<g fill="#FF0000FF" stroke="#FF0000FF">
<path d="M 145.000 128.000 L 145.000 139.000 148.000 139.000 C 150.762 139.000 151.000 138.722 151.000 135.500 C 151.000 132.167 151.167 132.000 154.500 132.000 C 157.833 132.000 158.000 132.167 158.000 135.500 C 158.000 138.722 158.238 139.000 161.000 139.000 C 163.936 139.000 164.000 138.892 164.000 133.969 C 164.000 130.586 163.543 128.762 162.604 128.402 C 161.592 128.013 161.359 126.744 161.756 123.781 C 162.496 118.268 160.636 117.000 151.809 117.000 L 145.000 117.000 145.000 128.000 M 156.269 123.250 C 157.038 125.454 155.853 127.000 153.393 127.000 C 151.507 127.000 151.000 126.470 151.000 124.500 C 151.000 122.523 151.506 122.000 153.417 122.000 C 154.746 122.000 156.030 122.563 156.269 123.250 "/></g>
<g fill="#FFFB00FF" stroke="#FFFB00FF">
<path d="M 81.000 128.000 L 81.000 139.000 83.500 139.000 C 85.864 139.000 86.000 138.700 86.000 133.500 C 86.000 130.475 86.427 128.000 86.949 128.000 C 88.527 128.000 93.000 134.538 93.000 136.844 C 93.000 138.573 93.594 139.000 96.000 139.000 L 99.000 139.000 99.000 128.000 L 99.000 117.000 96.000 117.000 C 93.139 117.000 93.000 117.197 92.989 121.250 L 92.978 125.500 88.914 121.250 C 86.679 118.913 83.983 117.000 82.925 117.000 C 81.142 117.000 81.000 117.810 81.000 128.000 "/></g>
<g fill="#007AFFFF" stroke="#007AFFFF">
<path d="M 58.000 126.443 C 58.000 135.068 58.193 136.022 60.223 137.443 C 61.522 138.354 64.543 139.000 67.500 139.000 C 70.457 139.000 73.478 138.354 74.777 137.443 C 76.807 136.022 77.000 135.068 77.000 126.443 L 77.000 117.000 74.040 117.000 L 71.081 117.000 70.790 125.250 L 70.500 133.500 67.500 133.500 L 64.500 133.500 64.210 125.250 L 63.919 117.000 60.960 117.000 L 58.000 117.000 58.000 126.443 "/></g>
<g fill="#FF0000FF" stroke="#FF0000FF">
<path d="M 102.667 117.667 C 102.300 118.033 102.000 122.983 102.000 128.667 L 102.000 139.000 110.000 139.000 C 117.258 139.000 118.000 138.820 118.000 137.055 C 118.000 135.444 117.184 135.057 113.250 134.805 C 109.268 134.549 108.500 134.177 108.500 132.500 C 108.500 130.911 109.270 130.436 112.250 130.190 C 115.143 129.950 116.000 129.450 116.000 128.000 C 116.000 126.550 115.143 126.050 112.250 125.810 C 109.721 125.601 108.500 125.011 108.500 124.000 C 108.500 122.920 109.830 122.415 113.250 122.195 C 117.539 121.920 118.000 121.653 118.000 119.445 C 118.000 117.074 117.778 117.000 110.667 117.000 C 106.633 117.000 103.033 117.300 102.667 117.667 "/></g>
<g fill="#FF0000FF" stroke="#FF0000FF">
<path d="M 124.000 128.000 L 124.000 139.000 132.000 139.000 C 139.258 139.000 140.000 138.820 140.000 137.055 C 140.000 135.444 139.184 135.057 135.250 134.805 C 131.197 134.545 130.453 134.170 130.180 132.250 C 129.900 130.277 130.301 130.000 133.430 130.000 C 136.333 130.000 137.000 129.626 137.000 128.000 C 137.000 126.381 136.333 126.000 133.500 126.000 C 130.667 126.000 130.000 125.619 130.000 124.000 C 130.000 122.267 130.667 122.000 135.000 122.000 C 139.667 122.000 140.000 121.833 140.000 119.500 C 140.000 117.042 139.867 117.000 132.000 117.000 L 124.000 117.000 124.000 128.000 "/></g>
<g fill="#007AFFFF" stroke="#007AFFFF">
<path d="M 46.000 125.566 L 46.000 134.133 43.250 133.816 C 41.090 133.568 40.432 132.910 40.184 130.750 C 39.935 128.590 39.345 128.000 37.434 128.000 C 35.219 128.000 35.000 128.402 35.000 132.465 C 35.000 137.784 36.582 139.000 43.500 139.000 C 51.572 139.000 52.000 138.394 52.000 126.965 L 52.000 117.000 49.000 117.000 L 46.000 117.000 46.000 125.566 "/></g>
<g fill="#1D2936FF" stroke="#1D2936FF">
<path d="M 149.882 87.750 C 149.816 88.163 149.816 88.838 149.882 89.250 C 149.947 89.663 149.413 90.000 148.696 90.000 C 147.979 90.000 145.951 91.487 144.188 93.306 L 140.985 96.611 143.975 99.476 C 146.890 102.268 147.017 102.295 148.983 100.516 C 151.501 98.237 151.576 96.777 149.153 97.187 C 148.138 97.359 147.238 97.050 147.153 96.500 C 147.069 95.950 146.438 95.493 145.750 95.485 C 144.763 95.473 144.767 95.300 145.766 94.666 C 146.463 94.224 146.731 93.330 146.362 92.681 C 145.993 92.031 147.074 92.787 148.764 94.359 C 151.977 97.349 155.248 97.239 152.799 94.224 C 151.681 92.848 151.756 92.722 153.340 93.316 C 156.690 94.573 157.223 92.842 154.395 89.890 C 151.654 87.030 150.111 86.298 149.882 87.750 "/></g>
<g fill="#1D2936FF" stroke="#1D2936FF">
<path d="M 89.467 86.053 C 88.045 88.354 90.948 89.068 100.588 88.788 C 108.604 88.555 110.500 88.213 110.500 87.000 C 110.500 85.784 108.577 85.446 100.330 85.216 C 93.609 85.028 89.925 85.312 89.467 86.053 "/></g>
<g fill="#1C9954FF" stroke="#1C9954FF">
<path d="M 102.011 63.489 L 97.605 67.978 95.289 65.802 C 93.505 64.125 92.702 63.898 91.789 64.811 C 90.876 65.724 91.385 66.802 94.010 69.511 L 97.417 73.025 103.208 67.294 C 106.394 64.142 109.000 60.986 109.000 60.281 C 109.000 57.830 106.389 59.028 102.011 63.489 "/></g>
<g fill="#1D2936FF" stroke="#1D2936FF">
<path d="M 78.806 10.527 C 77.933 12.443 77.938 13.338 78.827 14.227 C 79.724 15.124 80.000 15.118 80.000 14.200 C 80.000 13.540 80.900 13.000 82.000 13.000 C 83.100 13.000 84.000 13.422 84.000 13.938 C 84.000 14.454 84.900 14.808 86.000 14.725 C 87.198 14.635 88.000 13.858 88.000 12.787 C 88.000 11.804 88.450 11.000 89.000 11.000 C 89.550 11.000 90.000 11.804 90.000 12.786 C 90.000 13.918 90.748 14.571 92.046 14.571 C 93.647 14.571 94.027 14.020 93.796 12.036 C 93.538 9.825 93.020 9.500 89.749 9.500 C 87.686 9.500 85.999 9.163 85.999 8.750 C 86.000 8.338 84.640 8.000 82.979 8.000 C 80.717 8.000 79.667 8.636 78.806 10.527 "/></g>
<g fill="#1D2936FF" stroke="#1D2936FF">
<path d="M 57.452 116.265 C 57.158 117.031 57.068 121.673 57.253 126.579 L 57.589 135.500 57.794 125.750 L 58.000 116.000 61.000 116.000 L 64.000 116.000 64.015 123.750 C 64.033 132.572 64.741 134.314 68.113 133.837 C 70.395 133.515 70.513 133.116 70.789 124.750 C 71.069 116.257 71.150 115.994 73.539 115.813 C 75.500 115.663 75.441 115.612 73.250 115.563 L 70.500 115.500 70.210 124.314 C 69.932 132.764 69.829 133.116 67.710 132.814 C 65.675 132.525 65.460 131.828 65.000 124.000 L 64.500 115.500 61.243 115.186 C 59.148 114.984 57.795 115.369 57.452 116.265 "/></g>
<g fill="#1D2936FF" stroke="#1D2936FF">
<path d="M 44.975 66.530 C 43.999 67.706 43.969 68.636 44.844 70.558 C 46.443 74.067 48.777 74.667 51.241 72.204 C 53.216 70.228 53.235 70.007 51.634 67.565 C 49.746 64.682 46.878 64.237 44.975 66.530 "/></g>
<g fill="#1D2936FF" stroke="#1D2936FF">
<path d="M 87.713 20.621 C 87.321 21.013 87.000 22.825 87.000 24.648 C 87.000 27.374 87.456 28.076 89.573 28.608 C 92.941 29.453 94.220 28.030 93.823 23.877 C 93.558 21.110 93.042 20.447 90.963 20.204 C 89.567 20.041 88.104 20.229 87.713 20.621 "/></g>
<g fill="#1D2936FF" stroke="#1D2936FF">
<path d="M 79.000 24.500 C 79.000 27.731 79.402 29.000 80.427 29.000 C 81.211 29.000 82.059 28.213 82.311 27.250 C 82.746 25.583 82.774 25.583 82.884 27.250 C 82.948 28.213 83.675 29.000 84.500 29.000 C 85.611 29.000 86.000 27.833 86.000 24.500 C 86.000 21.167 85.611 20.000 84.500 20.000 C 83.675 20.000 82.986 20.788 82.970 21.750 C 82.941 23.417 82.891 23.417 81.920 21.750 C 80.163 18.733 79.000 19.828 79.000 24.500 "/></g>
<g fill="#1D2936FF" stroke="#1D2936FF">
<path d="M 172.698 63.799 L 167.971 68.598 171.003 71.503 L 174.036 74.409 176.268 71.991 L 178.500 69.574 176.240 71.452 C 174.014 73.300 173.941 73.293 171.484 70.985 L 168.989 68.641 171.167 66.322 C 173.223 64.133 173.451 64.098 175.211 65.691 C 176.846 67.171 176.886 67.484 175.538 68.239 C 174.692 68.712 174.000 69.617 174.000 70.250 C 174.000 71.089 174.324 71.076 175.200 70.200 C 175.860 69.540 177.122 69.000 178.004 69.000 C 180.356 69.000 186.393 62.445 185.448 60.916 C 184.905 60.037 185.161 59.848 186.304 60.286 C 187.202 60.631 188.164 60.544 188.442 60.094 C 188.720 59.644 187.947 59.334 186.724 59.405 C 185.243 59.491 184.593 60.090 184.778 61.198 C 184.970 62.350 184.225 62.960 182.355 63.181 C 180.870 63.356 179.434 64.175 179.164 65.000 C 178.742 66.294 178.906 66.309 180.362 65.107 C 182.811 63.085 183.383 64.344 180.996 66.504 C 179.036 68.278 178.909 68.263 176.491 65.992 C 174.128 63.772 174.089 63.559 175.712 61.766 C 176.652 60.727 178.227 60.088 179.212 60.345 C 180.197 60.603 180.751 60.405 180.442 59.907 C 179.322 58.094 177.331 59.095 172.698 63.799 "/></g>
<g fill="#1D2936FF" stroke="#1D2936FF">
<path d="M 51.146 61.344 L 49.002 63.627 51.891 66.396 C 53.714 68.142 55.027 68.765 55.449 68.082 C 55.817 67.487 55.810 66.502 55.434 65.893 C 54.978 65.155 55.430 65.002 56.791 65.434 C 59.764 66.377 60.288 64.605 57.719 62.294 C 54.113 59.050 53.399 58.947 51.146 61.344 "/></g>
<g fill="#1D2936FF" stroke="#1D2936FF">
<path d="M 101.448 117.275 C 101.162 118.019 101.074 123.550 101.252 129.564 L 101.575 140.500 101.788 128.750 L 102.000 117.000 110.575 117.000 L 119.151 117.000 118.904 120.250 C 118.742 122.387 118.916 122.921 119.413 121.808 C 119.829 120.878 120.014 119.303 119.823 118.308 C 119.526 116.755 118.241 116.459 110.722 116.211 C 104.078 115.991 101.842 116.248 101.448 117.275 "/></g>
<g fill="#1D2936FF" stroke="#1D2936FF">
<path d="M 53.000 11.500 C 53.000 13.425 53.450 15.000 54.000 15.000 C 54.550 15.000 55.000 14.550 55.000 14.000 C 55.000 13.450 55.900 13.000 57.000 13.000 C 58.100 13.000 59.000 13.633 59.000 14.406 C 59.000 15.320 59.700 15.630 61.000 15.290 C 62.325 14.943 63.000 13.926 63.000 12.276 C 63.000 10.522 62.575 9.949 61.563 10.338 C 60.728 10.658 59.938 10.179 59.679 9.195 C 59.271 7.649 59.222 7.654 59.116 9.250 C 58.973 11.409 55.000 11.650 55.000 9.500 C 55.000 8.675 54.550 8.000 54.000 8.000 C 53.450 8.000 53.000 9.575 53.000 11.500 "/></g>
<g fill="#1D2936FF" stroke="#1D2936FF">
<path d="M 154.200 83.200 C 152.424 84.976 152.723 86.391 155.410 88.916 L 157.820 91.180 160.017 88.983 C 161.977 87.023 162.051 86.623 160.703 85.275 C 159.074 83.645 156.531 84.433 157.638 86.224 C 158.047 86.885 157.842 87.020 157.114 86.570 C 156.456 86.164 156.192 84.970 156.527 83.916 C 157.211 81.759 156.010 81.390 154.200 83.200 "/></g>
<g fill="#1D2936FF" stroke="#1D2936FF">
<path d="M 159.071 78.424 C 156.875 80.762 157.179 82.252 159.657 81.301 C 160.586 80.945 161.322 81.517 161.676 82.870 C 162.422 85.721 163.105 85.569 166.563 81.788 C 168.178 80.022 168.825 79.037 168.000 79.600 C 165.574 81.254 161.321 79.908 162.573 77.882 C 162.950 77.271 163.803 77.373 164.839 78.153 C 166.236 79.204 166.303 79.182 165.260 78.012 C 163.343 75.860 161.356 75.992 159.071 78.424 "/></g>
<g fill="#D70000FF" stroke="#D70000FF">
<path d="M 108.380 131.452 C 107.422 133.948 108.958 135.000 113.559 135.000 C 117.333 135.000 118.000 135.300 118.000 137.000 C 118.000 138.802 117.259 139.022 110.500 139.222 L 103.000 139.444 110.750 139.472 C 118.357 139.499 118.500 139.454 118.500 137.000 C 118.500 134.727 118.069 134.472 113.750 134.195 C 107.820 133.815 107.100 131.319 112.750 130.728 L 116.500 130.336 112.719 130.168 C 110.215 130.057 108.749 130.491 108.380 131.452 "/></g>
<g fill="#1D2936FF" stroke="#1D2936FF">
<path d="M 144.433 117.314 C 144.156 118.037 144.074 123.550 144.252 129.564 L 144.575 140.500 144.788 128.792 L 145.000 117.084 152.750 116.743 L 160.500 116.402 152.719 116.201 C 147.064 116.055 144.799 116.359 144.433 117.314 "/></g>
<g fill="#1D2936FF" stroke="#1D2936FF">
<path d="M 40.250 70.527 C 37.656 72.356 37.312 74.000 39.525 74.000 C 40.363 74.000 41.500 75.184 42.050 76.632 C 43.020 79.182 43.113 79.208 45.025 77.477 C 47.500 75.237 47.514 74.368 45.085 73.732 C 44.031 73.457 43.019 72.266 42.835 71.086 C 42.519 69.065 42.370 69.033 40.250 70.527 "/></g>
<g fill="#E9E500FF" stroke="#E9E500FF">
<path d="M 80.451 128.500 L 80.500 139.500 83.500 139.500 C 86.457 139.500 86.499 139.425 86.462 134.250 L 86.423 129.000 86.212 134.000 C 86.017 138.592 85.799 139.000 83.533 139.000 C 81.083 139.000 81.063 138.922 80.734 128.250 L 80.402 117.500 80.451 128.500 "/></g>
<g fill="#D70000FF" stroke="#D70000FF">
<path d="M 123.444 128.500 L 123.500 139.500 131.750 139.474 L 140.000 139.447 132.034 139.224 L 124.068 139.000 123.728 128.250 L 123.388 117.500 123.444 128.500 "/></g>
<g fill="#1D2936FF" stroke="#1D2936FF">
<path d="M 45.225 124.500 C 45.050 131.118 44.682 133.000 43.563 133.000 C 42.673 133.000 42.007 131.763 41.813 129.750 C 41.541 126.929 41.137 126.508 38.750 126.563 C 36.630 126.611 36.558 126.668 38.437 126.813 C 40.407 126.964 40.933 127.622 41.187 130.250 C 41.426 132.729 41.975 133.500 43.500 133.500 C 45.350 133.500 45.498 132.842 45.475 124.750 L 45.450 116.000 45.225 124.500 "/></g>
<g fill="#FF0000FF" stroke="#FF0000FF">
<path d="M 180.976 56.529 C 179.922 57.799 180.113 58.490 182.103 60.601 C 184.187 62.811 184.513 62.905 184.602 61.322 C 184.788 57.992 184.989 57.746 186.500 59.000 C 187.350 59.706 188.000 59.808 188.000 59.237 C 188.000 58.356 183.769 55.000 182.658 55.000 C 182.431 55.000 181.674 55.688 180.976 56.529 "/></g>
<g fill="#1D2936FF" stroke="#1D2936FF">
<path d="M 79.433 117.314 C 79.156 118.037 79.074 123.550 79.252 129.564 L 79.575 140.500 79.788 128.813 L 80.000 117.127 83.250 116.723 L 86.500 116.320 83.219 116.160 C 81.303 116.067 79.727 116.547 79.433 117.314 "/></g>
<g fill="#1D2936FF" stroke="#1D2936FF">
<path d="M 77.194 126.000 C 77.070 131.225 76.600 136.082 76.149 136.792 C 75.698 137.503 74.018 138.477 72.415 138.956 C 69.954 139.692 69.850 139.841 71.750 139.914 C 72.988 139.961 74.916 139.084 76.036 137.964 C 77.857 136.143 78.037 134.902 77.745 126.214 L 77.419 116.500 77.194 126.000 "/></g>
<g fill="#FF0000FF" stroke="#FF0000FF">
<path d="M 170.726 66.750 C 169.085 68.564 169.121 68.765 171.472 70.974 C 173.521 72.898 174.202 73.077 175.471 72.024 C 176.312 71.326 177.000 70.305 177.000 69.755 C 177.000 69.169 176.416 69.240 175.589 69.926 C 174.624 70.727 173.973 70.765 173.530 70.049 C 173.174 69.472 173.246 68.931 173.691 68.848 C 174.136 68.764 173.969 68.646 173.321 68.585 C 171.663 68.430 170.396 67.000 171.917 67.000 C 172.604 67.000 173.005 66.515 172.808 65.923 C 172.603 65.310 171.707 65.666 170.726 66.750 "/></g>
<g fill="#006DE3FF" stroke="#006DE3FF">
<path d="M 49.750 116.720 C 51.864 117.108 52.014 117.674 52.226 126.066 L 52.452 135.000 52.476 125.750 C 52.500 116.569 52.481 116.499 50.000 116.404 C 47.825 116.320 47.792 116.361 49.750 116.720 "/></g>
<g fill="#007AFFFF" stroke="#007AFFFF">
<path d="M 29.000 83.723 C 29.000 84.290 29.694 85.331 30.542 86.035 C 31.590 86.904 31.758 87.642 31.066 88.334 C 30.374 89.026 29.453 88.815 28.195 87.676 C 25.330 85.084 24.367 85.697 26.964 88.461 C 28.785 90.400 29.672 90.711 31.138 89.926 C 33.548 88.636 33.500 86.763 31.000 84.500 C 29.900 83.505 29.000 83.155 29.000 83.723 "/></g>
<g fill="#FF0000FF" stroke="#FF0000FF">
<path d="M 176.103 61.455 C 174.890 62.848 175.011 63.383 177.026 65.528 C 179.203 67.845 179.459 67.895 181.179 66.338 C 183.291 64.426 182.773 63.114 180.613 64.906 C 179.635 65.718 178.972 65.763 178.530 65.049 C 178.174 64.472 178.246 63.931 178.691 63.848 C 179.136 63.764 178.941 63.647 178.259 63.587 C 177.008 63.478 176.790 62.902 177.250 60.926 C 177.388 60.335 176.871 60.573 176.103 61.455 "/></g>
<g fill="#1D2936FF" stroke="#1D2936FF">
<path d="M 131.752 116.925 C 136.841 117.241 141.003 117.163 141.002 116.750 C 141.001 116.338 136.838 116.079 131.750 116.175 L 122.500 116.351 131.752 116.925 "/></g>
<g fill="#FFFB00FF" stroke="#FFFB00FF">
<path d="M 167.376 72.250 C 167.814 73.617 167.359 74.000 165.294 74.000 L 162.651 74.000 165.076 76.425 C 166.409 77.759 167.166 78.321 166.758 77.675 C 165.459 75.618 165.933 74.916 168.421 75.212 L 170.842 75.500 168.828 73.000 C 167.537 71.398 167.016 71.129 167.376 72.250 "/></g>
<g fill="#1D2936FF" stroke="#1D2936FF">
<path d="M 109.015 132.250 C 109.003 133.685 109.899 134.000 114.000 134.000 C 118.846 134.000 119.006 134.093 119.194 137.000 C 119.373 139.748 119.394 139.727 119.444 136.750 C 119.498 133.604 119.356 133.490 115.016 133.181 C 112.550 133.006 110.195 132.331 109.782 131.681 C 109.282 130.895 109.025 131.086 109.015 132.250 "/></g>
<g fill="#1D2936FF" stroke="#1D2936FF">
<path d="M 112.667 19.667 C 111.289 21.045 111.990 27.059 113.601 27.677 C 115.500 28.406 117.354 25.954 115.958 24.558 C 115.347 23.947 115.000 24.216 115.000 25.300 C 115.000 26.235 114.550 27.000 114.000 27.000 C 113.450 27.000 113.000 25.377 113.000 23.393 C 113.000 20.544 113.326 19.911 114.552 20.382 C 115.442 20.723 115.843 20.555 115.493 19.989 C 114.786 18.844 113.622 18.712 112.667 19.667 "/></g>
<g fill="#007AFFFF" stroke="#007AFFFF">
<path d="M 23.032 88.528 C 23.049 89.063 23.710 90.354 24.500 91.397 C 26.296 93.770 25.369 95.548 23.248 93.799 C 21.932 92.712 21.756 92.745 22.171 94.000 C 22.839 96.020 25.031 95.897 26.377 93.764 C 27.248 92.384 27.014 91.569 25.236 89.792 C 24.006 88.562 23.014 87.993 23.032 88.528 "/></g>
<g fill="#007AFFFF" stroke="#007AFFFF">
<path d="M 104.150 23.750 C 104.019 26.590 104.315 27.000 106.500 27.000 C 108.685 27.000 108.981 26.590 108.850 23.750 C 108.711 20.725 108.671 20.690 108.284 23.250 C 108.055 24.763 107.252 26.000 106.500 26.000 C 105.748 26.000 104.945 24.763 104.716 23.250 C 104.329 20.690 104.289 20.725 104.150 23.750 "/></g>
<g fill="#D70000FF" stroke="#D70000FF">
<path d="M 164.208 134.500 C 164.022 138.521 163.734 139.020 161.500 139.188 C 159.407 139.344 159.448 139.385 161.750 139.438 C 164.378 139.497 164.498 139.290 164.458 134.750 L 164.417 130.000 164.208 134.500 "/></g>
<g fill="#1D2936FF" stroke="#1D2936FF">
<path d="M 92.550 117.250 C 91.600 120.313 91.365 123.893 92.144 123.411 C 92.615 123.120 93.000 121.586 93.000 120.001 C 93.000 117.409 93.375 117.081 96.750 116.728 L 100.500 116.336 96.719 116.168 C 94.439 116.067 92.783 116.496 92.550 117.250 "/></g>
<g fill="#FFFB00FF" stroke="#FFFB00FF">
<path d="M 114.000 21.455 C 114.000 21.705 115.125 23.034 116.500 24.409 L 119.000 26.909 118.985 23.705 C 118.973 21.168 118.748 20.812 117.909 22.000 C 117.110 23.129 116.722 23.191 116.341 22.250 C 115.867 21.083 114.000 20.449 114.000 21.455 "/></g>
<g fill="#007AFFFF" stroke="#007AFFFF">
<path d="M 100.160 23.250 C 99.987 26.222 99.091 26.691 97.200 24.800 C 96.267 23.867 96.000 23.978 96.000 25.300 C 96.000 26.458 96.817 27.000 98.563 27.000 C 100.871 27.000 101.087 26.676 100.723 23.750 C 100.361 20.831 100.304 20.780 100.160 23.250 "/></g>
<g fill="#D70000FF" stroke="#D70000FF">
<path d="M 151.200 135.500 C 151.021 138.629 150.682 139.021 148.000 139.194 C 145.252 139.373 145.273 139.394 148.250 139.444 C 151.357 139.498 151.498 139.335 151.450 135.750 C 151.401 132.101 151.395 132.095 151.200 135.500 "/></g>
<g fill="#1D2936FF" stroke="#1D2936FF">
<path d="M 39.287 78.579 C 41.677 81.479 41.434 82.140 38.250 81.395 C 35.733 80.806 35.631 80.890 37.045 82.386 C 38.409 83.827 38.822 83.848 40.545 82.567 C 42.464 81.142 42.454 81.073 40.037 78.808 C 38.131 77.021 37.961 76.970 39.287 78.579 "/></g>
<g fill="#1D2936FF" stroke="#1D2936FF">
<path d="M 103.527 67.000 L 97.553 73.500 103.784 67.524 C 107.212 64.236 109.900 61.311 109.758 61.024 C 109.616 60.736 106.812 63.425 103.527 67.000 "/></g>
<g fill="#1D2936FF" stroke="#1D2936FF">
<path d="M 117.750 19.662 C 118.438 19.940 119.000 21.667 119.000 23.500 C 119.000 25.333 118.438 27.060 117.750 27.338 C 117.003 27.639 117.205 27.874 118.250 27.921 C 119.669 27.985 120.000 27.149 120.000 23.500 C 120.000 19.851 119.669 19.015 118.250 19.079 C 117.205 19.126 117.003 19.361 117.750 19.662 "/></g>
<g fill="#1D2936FF" stroke="#1D2936FF">
<path d="M 73.000 11.441 C 73.000 13.398 73.450 15.000 74.000 15.000 C 74.550 15.000 75.000 13.677 75.000 12.059 C 75.000 10.441 74.550 8.840 74.000 8.500 C 73.405 8.132 73.000 9.323 73.000 11.441 "/></g>
<g fill="#1D2936FF" stroke="#1D2936FF">
<path d="M 154.750 132.720 C 156.514 133.044 157.043 133.874 157.200 136.566 C 157.385 139.738 157.404 139.714 157.450 136.250 C 157.494 132.928 157.215 132.489 155.000 132.404 C 152.825 132.320 152.792 132.361 154.750 132.720 "/></g>
<g fill="#1D2936FF" stroke="#1D2936FF">
<path d="M 130.404 132.225 C 130.553 132.970 132.772 133.716 135.746 134.020 C 138.544 134.306 140.620 134.193 140.358 133.770 C 140.096 133.346 137.921 133.000 135.524 133.000 C 133.128 133.000 130.938 132.539 130.658 131.975 C 130.379 131.411 130.264 131.524 130.404 132.225 "/></g>
<g fill="#1D2936FF" stroke="#1D2936FF">
<path d="M 101.562 63.138 C 97.775 66.822 97.545 66.904 95.562 65.272 L 93.500 63.574 95.561 65.820 L 97.621 68.066 101.561 63.687 L 105.500 59.307 101.562 63.138 "/></g>
<g fill="#1D2936FF" stroke="#1D2936FF">
<path d="M 105.323 22.423 C 105.420 24.030 106.063 25.530 106.750 25.756 C 107.600 26.035 107.952 25.100 107.850 22.833 L 107.700 19.500 107.186 22.500 L 106.671 25.500 105.909 22.500 L 105.146 19.500 105.323 22.423 "/></g>
<g fill="#006DE3FF" stroke="#006DE3FF">
<path d="M 34.647 127.762 C 34.349 128.244 35.432 128.443 37.053 128.206 C 39.641 127.826 40.023 128.092 40.188 130.387 C 40.366 132.879 40.378 132.873 40.438 130.250 C 40.489 127.998 40.019 127.444 37.844 127.193 C 36.384 127.024 34.945 127.280 34.647 127.762 "/></g>
<g fill="#D70000FF" stroke="#D70000FF">
<path d="M 137.179 128.000 C 137.041 129.541 136.197 130.046 133.500 130.200 C 130.095 130.395 130.101 130.401 133.750 130.450 C 137.007 130.493 137.491 130.204 137.429 128.250 C 137.377 126.627 137.307 126.557 137.179 128.000 "/></g>
<g fill="#1D2936FF" stroke="#1D2936FF">
<path d="M 89.173 131.500 C 90.643 133.150 92.038 135.850 92.273 137.500 L 92.700 140.500 92.850 137.437 C 92.962 135.141 92.186 133.639 89.750 131.437 L 86.500 128.500 89.173 131.500 "/></g>
<g fill="#1D2936FF" stroke="#1D2936FF">
<path d="M 64.000 12.000 C 64.000 12.550 65.125 13.000 66.500 13.000 C 67.875 13.000 69.000 12.550 69.000 12.000 C 69.000 11.450 67.875 11.000 66.500 11.000 C 65.125 11.000 64.000 11.450 64.000 12.000 "/></g>
</svg>
